<svg xmlns="http://www.w3.org/2000/svg" viewBox="0 0 1024 1024">
  <rect width="1024" height="1024" fill="#FFFFFF"/>
  <path fill="#17233E" d="M323 542c-38-133 10-284 126-379 95-77 224-94 335-40 84 41 144 115 170 204-60-81-157-129-265-124-172 8-310 145-312 309-28 8-52 22-54 30z"/>
  <path fill="#346D8D" d="M299 604c54-87 154-122 281-93 97 23 164 75 260 42 52-18 95-53 130-101-8 83-55 150-129 192-76 44-157 46-243 7-91-42-181-67-267 17-54 53-64 129-20 195-91-48-126-178-12-259z"/>
  <path fill="#AEBEC8" d="M313 864c67 48 150 77 240 78 176 3 327-105 386-260-67 87-168 144-283 151-129 8-238-44-308-133-41 47-51 112-35 164z"/>
  <path fill="#D7B757" d="M724 358c30 84 45 99 129 129-84 30-99 45-129 129-30-84-45-99-129-129 84-30 99-45 129-129z"/>
</svg>
